<mxfile host="app.diagrams.net" modified="2023-04-19T03:03:20.227Z" agent="Mozilla/5.0 (Macintosh; Intel Mac OS X 10_15_7) AppleWebKit/605.1.15 (KHTML, like Gecko) Version/16.4 Safari/605.1.15" etag="XxmQma2yeKWuNvt7ny7P" version="21.1.9" type="github">
  <diagram name="Scratch" id="efa7a0a1-bf9b-a30e-e6df-94a7791c09e9">
    <mxGraphModel dx="924" dy="620" grid="1" gridSize="10" guides="1" tooltips="1" connect="1" arrows="1" fold="1" page="1" pageScale="1" pageWidth="826" pageHeight="1169" background="none" math="0" shadow="0">
      <root>
        <mxCell id="0" />
        <mxCell id="1" parent="0" />
        <mxCell id="0e_Q2mHdo9LunTDskuFg-116" value="Book" style="swimlane;fontStyle=0;childLayout=stackLayout;horizontal=1;startSize=26;horizontalStack=0;resizeParent=1;resizeParentMax=0;resizeLast=0;collapsible=1;marginBottom=0;align=center;fontSize=14;" vertex="1" parent="1">
          <mxGeometry x="30" y="170" width="160" height="176" as="geometry">
            <mxRectangle x="430" y="90" width="60" height="30" as="alternateBounds" />
          </mxGeometry>
        </mxCell>
        <mxCell id="0e_Q2mHdo9LunTDskuFg-117" value="Title" style="text;strokeColor=none;fillColor=none;spacingLeft=4;spacingRight=4;overflow=hidden;rotatable=0;points=[[0,0.5],[1,0.5]];portConstraint=eastwest;fontSize=12;whiteSpace=wrap;html=1;" vertex="1" parent="0e_Q2mHdo9LunTDskuFg-116">
          <mxGeometry y="26" width="160" height="30" as="geometry" />
        </mxCell>
        <mxCell id="0e_Q2mHdo9LunTDskuFg-118" value="Author" style="text;strokeColor=none;fillColor=none;spacingLeft=4;spacingRight=4;overflow=hidden;rotatable=0;points=[[0,0.5],[1,0.5]];portConstraint=eastwest;fontSize=12;whiteSpace=wrap;html=1;" vertex="1" parent="0e_Q2mHdo9LunTDskuFg-116">
          <mxGeometry y="56" width="160" height="30" as="geometry" />
        </mxCell>
        <mxCell id="0e_Q2mHdo9LunTDskuFg-119" value="Categories" style="text;strokeColor=none;fillColor=none;spacingLeft=4;spacingRight=4;overflow=hidden;rotatable=0;points=[[0,0.5],[1,0.5]];portConstraint=eastwest;fontSize=12;whiteSpace=wrap;html=1;" vertex="1" parent="0e_Q2mHdo9LunTDskuFg-116">
          <mxGeometry y="86" width="160" height="30" as="geometry" />
        </mxCell>
        <mxCell id="0e_Q2mHdo9LunTDskuFg-120" value="Prices" style="text;strokeColor=none;fillColor=none;spacingLeft=4;spacingRight=4;overflow=hidden;rotatable=0;points=[[0,0.5],[1,0.5]];portConstraint=eastwest;fontSize=12;whiteSpace=wrap;html=1;" vertex="1" parent="0e_Q2mHdo9LunTDskuFg-116">
          <mxGeometry y="116" width="160" height="30" as="geometry" />
        </mxCell>
        <mxCell id="0e_Q2mHdo9LunTDskuFg-144" value="..." style="text;strokeColor=none;fillColor=none;spacingLeft=4;spacingRight=4;overflow=hidden;rotatable=0;points=[[0,0.5],[1,0.5]];portConstraint=eastwest;fontSize=12;whiteSpace=wrap;html=1;" vertex="1" parent="0e_Q2mHdo9LunTDskuFg-116">
          <mxGeometry y="146" width="160" height="30" as="geometry" />
        </mxCell>
        <mxCell id="0e_Q2mHdo9LunTDskuFg-127" style="edgeStyle=orthogonalEdgeStyle;rounded=0;orthogonalLoop=1;jettySize=auto;html=1;exitX=0.5;exitY=0;exitDx=0;exitDy=0;entryX=0;entryY=0.5;entryDx=0;entryDy=0;" edge="1" parent="1" source="0e_Q2mHdo9LunTDskuFg-121" target="0e_Q2mHdo9LunTDskuFg-119">
          <mxGeometry relative="1" as="geometry" />
        </mxCell>
        <mxCell id="0e_Q2mHdo9LunTDskuFg-121" value="Category" style="swimlane;fontStyle=0;childLayout=stackLayout;horizontal=1;startSize=26;horizontalStack=0;resizeParent=1;resizeParentMax=0;resizeLast=0;collapsible=1;marginBottom=0;align=center;fontSize=14;" vertex="1" collapsed="1" parent="1">
          <mxGeometry x="200" y="40" width="100" height="30" as="geometry">
            <mxRectangle x="200" y="40" width="160" height="86" as="alternateBounds" />
          </mxGeometry>
        </mxCell>
        <mxCell id="0e_Q2mHdo9LunTDskuFg-122" value="Title" style="text;strokeColor=none;fillColor=none;spacingLeft=4;spacingRight=4;overflow=hidden;rotatable=0;points=[[0,0.5],[1,0.5]];portConstraint=eastwest;fontSize=12;whiteSpace=wrap;html=1;" vertex="1" parent="0e_Q2mHdo9LunTDskuFg-121">
          <mxGeometry y="26" width="160" height="30" as="geometry" />
        </mxCell>
        <mxCell id="0e_Q2mHdo9LunTDskuFg-126" style="edgeStyle=orthogonalEdgeStyle;rounded=0;orthogonalLoop=1;jettySize=auto;html=1;exitX=0;exitY=0.5;exitDx=0;exitDy=0;entryX=0;entryY=0.25;entryDx=0;entryDy=0;" edge="1" parent="0e_Q2mHdo9LunTDskuFg-121" source="0e_Q2mHdo9LunTDskuFg-123" target="0e_Q2mHdo9LunTDskuFg-121">
          <mxGeometry relative="1" as="geometry">
            <Array as="points">
              <mxPoint x="-60" y="71" />
              <mxPoint x="-60" y="22" />
            </Array>
          </mxGeometry>
        </mxCell>
        <mxCell id="0e_Q2mHdo9LunTDskuFg-123" value="Parent" style="text;strokeColor=none;fillColor=none;spacingLeft=4;spacingRight=4;overflow=hidden;rotatable=0;points=[[0,0.5],[1,0.5]];portConstraint=eastwest;fontSize=12;whiteSpace=wrap;html=1;" vertex="1" parent="0e_Q2mHdo9LunTDskuFg-121">
          <mxGeometry y="56" width="160" height="30" as="geometry" />
        </mxCell>
        <mxCell id="0e_Q2mHdo9LunTDskuFg-133" value="Price Detail" style="swimlane;fontStyle=0;childLayout=stackLayout;horizontal=1;startSize=26;horizontalStack=0;resizeParent=1;resizeParentMax=0;resizeLast=0;collapsible=1;marginBottom=0;align=center;fontSize=14;" vertex="1" parent="1">
          <mxGeometry x="260" y="450" width="160" height="146" as="geometry">
            <mxRectangle x="310" y="160" width="110" height="30" as="alternateBounds" />
          </mxGeometry>
        </mxCell>
        <mxCell id="0e_Q2mHdo9LunTDskuFg-134" value="Book Type" style="text;strokeColor=none;fillColor=none;spacingLeft=4;spacingRight=4;overflow=hidden;rotatable=0;points=[[0,0.5],[1,0.5]];portConstraint=eastwest;fontSize=12;whiteSpace=wrap;html=1;" vertex="1" parent="0e_Q2mHdo9LunTDskuFg-133">
          <mxGeometry y="26" width="160" height="30" as="geometry" />
        </mxCell>
        <mxCell id="0e_Q2mHdo9LunTDskuFg-135" value="Price/Discount" style="text;strokeColor=none;fillColor=none;spacingLeft=4;spacingRight=4;overflow=hidden;rotatable=0;points=[[0,0.5],[1,0.5]];portConstraint=eastwest;fontSize=12;whiteSpace=wrap;html=1;" vertex="1" parent="0e_Q2mHdo9LunTDskuFg-133">
          <mxGeometry y="56" width="160" height="30" as="geometry" />
        </mxCell>
        <mxCell id="0e_Q2mHdo9LunTDskuFg-138" value="Quantity" style="text;strokeColor=none;fillColor=none;spacingLeft=4;spacingRight=4;overflow=hidden;rotatable=0;points=[[0,0.5],[1,0.5]];portConstraint=eastwest;fontSize=12;whiteSpace=wrap;html=1;" vertex="1" parent="0e_Q2mHdo9LunTDskuFg-133">
          <mxGeometry y="86" width="160" height="30" as="geometry" />
        </mxCell>
        <mxCell id="0e_Q2mHdo9LunTDskuFg-157" value="Stock state" style="text;strokeColor=none;fillColor=none;spacingLeft=4;spacingRight=4;overflow=hidden;rotatable=0;points=[[0,0.5],[1,0.5]];portConstraint=eastwest;fontSize=12;whiteSpace=wrap;html=1;" vertex="1" parent="0e_Q2mHdo9LunTDskuFg-133">
          <mxGeometry y="116" width="160" height="30" as="geometry" />
        </mxCell>
        <mxCell id="0e_Q2mHdo9LunTDskuFg-137" style="edgeStyle=orthogonalEdgeStyle;rounded=0;orthogonalLoop=1;jettySize=auto;html=1;exitX=1;exitY=0.5;exitDx=0;exitDy=0;entryX=0;entryY=0.25;entryDx=0;entryDy=0;endArrow=ERoneToMany;endFill=0;" edge="1" parent="1" source="0e_Q2mHdo9LunTDskuFg-120" target="0e_Q2mHdo9LunTDskuFg-133">
          <mxGeometry relative="1" as="geometry">
            <mxPoint x="250" y="301" as="targetPoint" />
          </mxGeometry>
        </mxCell>
        <mxCell id="0e_Q2mHdo9LunTDskuFg-140" value="User" style="swimlane;fontStyle=0;childLayout=stackLayout;horizontal=1;startSize=26;horizontalStack=0;resizeParent=1;resizeParentMax=0;resizeLast=0;collapsible=1;marginBottom=0;align=center;fontSize=14;" vertex="1" parent="1">
          <mxGeometry x="500" y="25" width="160" height="116" as="geometry" />
        </mxCell>
        <mxCell id="0e_Q2mHdo9LunTDskuFg-141" value="Title" style="text;strokeColor=none;fillColor=none;spacingLeft=4;spacingRight=4;overflow=hidden;rotatable=0;points=[[0,0.5],[1,0.5]];portConstraint=eastwest;fontSize=12;whiteSpace=wrap;html=1;" vertex="1" parent="0e_Q2mHdo9LunTDskuFg-140">
          <mxGeometry y="26" width="160" height="30" as="geometry" />
        </mxCell>
        <mxCell id="0e_Q2mHdo9LunTDskuFg-142" value="Email" style="text;strokeColor=none;fillColor=none;spacingLeft=4;spacingRight=4;overflow=hidden;rotatable=0;points=[[0,0.5],[1,0.5]];portConstraint=eastwest;fontSize=12;whiteSpace=wrap;html=1;" vertex="1" parent="0e_Q2mHdo9LunTDskuFg-140">
          <mxGeometry y="56" width="160" height="30" as="geometry" />
        </mxCell>
        <mxCell id="0e_Q2mHdo9LunTDskuFg-143" value="..." style="text;strokeColor=none;fillColor=none;spacingLeft=4;spacingRight=4;overflow=hidden;rotatable=0;points=[[0,0.5],[1,0.5]];portConstraint=eastwest;fontSize=12;whiteSpace=wrap;html=1;" vertex="1" parent="0e_Q2mHdo9LunTDskuFg-140">
          <mxGeometry y="86" width="160" height="30" as="geometry" />
        </mxCell>
        <mxCell id="0e_Q2mHdo9LunTDskuFg-145" value="Order" style="swimlane;fontStyle=0;childLayout=stackLayout;horizontal=1;startSize=26;horizontalStack=0;resizeParent=1;resizeParentMax=0;resizeLast=0;collapsible=1;marginBottom=0;align=center;fontSize=14;strokeColor=default;fontFamily=Helvetica;fontColor=default;fillColor=default;" vertex="1" parent="1">
          <mxGeometry x="610" y="480" width="160" height="116" as="geometry" />
        </mxCell>
        <mxCell id="0e_Q2mHdo9LunTDskuFg-146" value="..." style="text;strokeColor=none;fillColor=none;spacingLeft=4;spacingRight=4;overflow=hidden;rotatable=0;points=[[0,0.5],[1,0.5]];portConstraint=eastwest;fontSize=14;whiteSpace=wrap;html=1;fontFamily=Helvetica;fontColor=default;" vertex="1" parent="0e_Q2mHdo9LunTDskuFg-145">
          <mxGeometry y="26" width="160" height="30" as="geometry" />
        </mxCell>
        <mxCell id="0e_Q2mHdo9LunTDskuFg-147" value="..." style="text;strokeColor=none;fillColor=none;spacingLeft=4;spacingRight=4;overflow=hidden;rotatable=0;points=[[0,0.5],[1,0.5]];portConstraint=eastwest;fontSize=14;whiteSpace=wrap;html=1;fontFamily=Helvetica;fontColor=default;" vertex="1" parent="0e_Q2mHdo9LunTDskuFg-145">
          <mxGeometry y="56" width="160" height="30" as="geometry" />
        </mxCell>
        <mxCell id="0e_Q2mHdo9LunTDskuFg-148" value="..." style="text;strokeColor=none;fillColor=none;spacingLeft=4;spacingRight=4;overflow=hidden;rotatable=0;points=[[0,0.5],[1,0.5]];portConstraint=eastwest;fontSize=14;whiteSpace=wrap;html=1;fontFamily=Helvetica;fontColor=default;" vertex="1" parent="0e_Q2mHdo9LunTDskuFg-145">
          <mxGeometry y="86" width="160" height="30" as="geometry" />
        </mxCell>
        <mxCell id="0e_Q2mHdo9LunTDskuFg-149" value="User Wishes" style="swimlane;fontStyle=0;childLayout=stackLayout;horizontal=1;startSize=26;horizontalStack=0;resizeParent=1;resizeParentMax=0;resizeLast=0;collapsible=1;marginBottom=0;align=center;fontSize=14;strokeColor=default;fontFamily=Helvetica;fontColor=default;fillColor=default;" vertex="1" parent="1">
          <mxGeometry x="520" y="290" width="160" height="146" as="geometry" />
        </mxCell>
        <mxCell id="0e_Q2mHdo9LunTDskuFg-153" value="User" style="text;strokeColor=none;fillColor=none;spacingLeft=4;spacingRight=4;overflow=hidden;rotatable=0;points=[[0,0.5],[1,0.5]];portConstraint=eastwest;fontSize=14;whiteSpace=wrap;html=1;fontFamily=Helvetica;fontColor=default;fontStyle=1" vertex="1" parent="0e_Q2mHdo9LunTDskuFg-149">
          <mxGeometry y="26" width="160" height="30" as="geometry" />
        </mxCell>
        <mxCell id="0e_Q2mHdo9LunTDskuFg-150" value="Product (Book)" style="text;strokeColor=none;fillColor=none;spacingLeft=4;spacingRight=4;overflow=hidden;rotatable=0;points=[[0,0.5],[1,0.5]];portConstraint=eastwest;fontSize=14;whiteSpace=wrap;html=1;fontFamily=Helvetica;fontColor=default;fontStyle=1" vertex="1" parent="0e_Q2mHdo9LunTDskuFg-149">
          <mxGeometry y="56" width="160" height="30" as="geometry" />
        </mxCell>
        <mxCell id="0e_Q2mHdo9LunTDskuFg-151" value="Type (Favorite,Cart,...)&amp;nbsp;" style="text;strokeColor=none;fillColor=none;spacingLeft=4;spacingRight=4;overflow=hidden;rotatable=0;points=[[0,0.5],[1,0.5]];portConstraint=eastwest;fontSize=14;whiteSpace=wrap;html=1;fontFamily=Helvetica;fontColor=default;" vertex="1" parent="0e_Q2mHdo9LunTDskuFg-149">
          <mxGeometry y="86" width="160" height="30" as="geometry" />
        </mxCell>
        <mxCell id="0e_Q2mHdo9LunTDskuFg-152" value="..." style="text;strokeColor=none;fillColor=none;spacingLeft=4;spacingRight=4;overflow=hidden;rotatable=0;points=[[0,0.5],[1,0.5]];portConstraint=eastwest;fontSize=14;whiteSpace=wrap;html=1;fontFamily=Helvetica;fontColor=default;" vertex="1" parent="0e_Q2mHdo9LunTDskuFg-149">
          <mxGeometry y="116" width="160" height="30" as="geometry" />
        </mxCell>
        <mxCell id="0e_Q2mHdo9LunTDskuFg-154" style="edgeStyle=orthogonalEdgeStyle;rounded=0;orthogonalLoop=1;jettySize=auto;html=1;exitX=1;exitY=0.5;exitDx=0;exitDy=0;entryX=1;entryY=0.5;entryDx=0;entryDy=0;fontFamily=Helvetica;fontSize=14;fontColor=default;startSize=26;endArrow=ERoneToMany;endFill=0;" edge="1" parent="1" source="0e_Q2mHdo9LunTDskuFg-141" target="0e_Q2mHdo9LunTDskuFg-153">
          <mxGeometry relative="1" as="geometry" />
        </mxCell>
        <mxCell id="0e_Q2mHdo9LunTDskuFg-155" style="edgeStyle=orthogonalEdgeStyle;rounded=0;orthogonalLoop=1;jettySize=auto;html=1;exitX=1;exitY=0.5;exitDx=0;exitDy=0;entryX=0;entryY=0.5;entryDx=0;entryDy=0;fontFamily=Helvetica;fontSize=14;fontColor=default;startSize=26;endArrow=ERoneToMany;endFill=0;" edge="1" parent="1" source="0e_Q2mHdo9LunTDskuFg-117" target="0e_Q2mHdo9LunTDskuFg-150">
          <mxGeometry relative="1" as="geometry" />
        </mxCell>
      </root>
    </mxGraphModel>
  </diagram>
</mxfile>
